<svg width="775" height="192" viewBox="0 0 775 192" fill="none" xmlns="http://www.w3.org/2000/svg">
<rect width="234" height="145" transform="translate(0 35)" fill="#1BA8EE"/>
<path d="M84.168 121.336C81.704 121.336 79.496 120.936 77.544 120.136C75.592 119.336 74.024 118.152 72.84 116.584C71.688 115.016 71.08 113.128 71.016 110.92H79.752C79.88 112.168 80.312 113.128 81.048 113.8C81.784 114.44 82.744 114.76 83.928 114.76C85.144 114.76 86.104 114.488 86.808 113.944C87.512 113.368 87.864 112.584 87.864 111.592C87.864 110.76 87.576 110.072 87 109.528C86.456 108.984 85.768 108.536 84.936 108.184C84.136 107.832 82.984 107.432 81.48 106.984C79.304 106.312 77.528 105.64 76.152 104.968C74.776 104.296 73.592 103.304 72.6 101.992C71.608 100.68 71.112 98.968 71.112 96.856C71.112 93.72 72.248 91.272 74.52 89.512C76.792 87.72 79.752 86.824 83.4 86.824C87.112 86.824 90.104 87.72 92.376 89.512C94.648 91.272 95.864 93.736 96.024 96.904H87.144C87.08 95.816 86.68 94.968 85.944 94.36C85.208 93.72 84.264 93.4 83.112 93.4C82.12 93.4 81.32 93.672 80.712 94.216C80.104 94.728 79.8 95.48 79.8 96.472C79.8 97.56 80.312 98.408 81.336 99.016C82.36 99.624 83.96 100.28 86.136 100.984C88.312 101.72 90.072 102.424 91.416 103.096C92.792 103.768 93.976 104.744 94.968 106.024C95.96 107.304 96.456 108.952 96.456 110.968C96.456 112.888 95.96 114.632 94.968 116.2C94.008 117.768 92.6 119.016 90.744 119.944C88.888 120.872 86.696 121.336 84.168 121.336ZM118.451 121.144C116.051 121.144 113.795 120.696 111.683 119.8C109.571 118.872 107.715 117.608 106.115 116.008C104.515 114.376 103.251 112.504 102.323 110.392C101.427 108.28 100.979 106.008 100.979 103.576C100.979 101.112 101.427 98.824 102.323 96.712C103.251 94.568 104.515 92.712 106.115 91.144C107.715 89.544 109.571 88.312 111.683 87.448C113.795 86.552 116.051 86.104 118.451 86.104C120.915 86.104 123.203 86.568 125.315 87.496C127.459 88.392 129.331 89.656 130.931 91.288C132.531 92.888 133.779 94.744 134.675 96.856C135.571 98.936 136.019 101.176 136.019 103.576C136.019 106.008 135.555 108.28 134.627 110.392C133.731 112.504 132.483 114.376 130.883 116.008C129.283 117.608 127.411 118.872 125.267 119.8C123.155 120.696 120.883 121.144 118.451 121.144ZM108.947 116.44L118.451 109.528L128.051 116.44L124.403 105.592L133.235 99.64H122.387L118.451 87.928L114.611 99.64H103.763L112.595 105.592L108.947 116.44ZM165.685 87.304V93.88H156.757V121H148.549V93.88H139.621V87.304H165.685Z" fill="white"/>
<path d="M264.336 106.672C259.408 106.672 254.992 105.872 251.088 104.272C247.184 102.672 244.048 100.304 241.68 97.168C239.376 94.032 238.16 90.256 238.032 85.84H255.504C255.76 88.336 256.624 90.256 258.096 91.6C259.568 92.88 261.488 93.52 263.856 93.52C266.288 93.52 268.208 92.976 269.616 91.888C271.024 90.736 271.728 89.168 271.728 87.184C271.728 85.52 271.152 84.144 270 83.056C268.912 81.968 267.536 81.072 265.872 80.368C264.272 79.664 261.968 78.864 258.96 77.968C254.608 76.624 251.056 75.28 248.304 73.936C245.552 72.592 243.184 70.608 241.2 67.984C239.216 65.36 238.224 61.936 238.224 57.712C238.224 51.44 240.496 46.544 245.04 43.024C249.584 39.44 255.504 37.648 262.8 37.648C270.224 37.648 276.208 39.44 280.752 43.024C285.296 46.544 287.728 51.472 288.048 57.808H270.288C270.16 55.632 269.36 53.936 267.888 52.72C266.416 51.44 264.528 50.8 262.224 50.8C260.24 50.8 258.64 51.344 257.424 52.432C256.208 53.456 255.6 54.96 255.6 56.944C255.6 59.12 256.624 60.816 258.672 62.032C260.72 63.248 263.92 64.56 268.272 65.968C272.624 67.44 276.144 68.848 278.832 70.192C281.584 71.536 283.952 73.488 285.936 76.048C287.92 78.608 288.912 81.904 288.912 85.936C288.912 89.776 287.92 93.264 285.936 96.4C284.016 99.536 281.2 102.032 277.488 103.888C273.776 105.744 269.392 106.672 264.336 106.672ZM351.911 52.432V106H335.495V98.704C333.831 101.072 331.559 102.992 328.679 104.464C325.863 105.872 322.727 106.576 319.271 106.576C315.175 106.576 311.559 105.68 308.423 103.888C305.287 102.032 302.855 99.376 301.127 95.92C299.399 92.464 298.535 88.4 298.535 83.728V52.432H314.855V81.52C314.855 85.104 315.783 87.888 317.639 89.872C319.495 91.856 321.991 92.848 325.127 92.848C328.327 92.848 330.855 91.856 332.711 89.872C334.567 87.888 335.495 85.104 335.495 81.52V52.432H351.911ZM380.118 60.016C381.718 57.52 383.926 55.504 386.742 53.968C389.558 52.432 392.854 51.664 396.63 51.664C401.046 51.664 405.046 52.784 408.63 55.024C412.214 57.264 415.03 60.464 417.078 64.624C419.19 68.784 420.246 73.616 420.246 79.12C420.246 84.624 419.19 89.488 417.078 93.712C415.03 97.872 412.214 101.104 408.63 103.408C405.046 105.648 401.046 106.768 396.63 106.768C392.918 106.768 389.622 106 386.742 104.464C383.926 102.928 381.718 100.944 380.118 98.512V131.536H363.702V52.432H380.118V60.016ZM403.542 79.12C403.542 75.024 402.39 71.824 400.086 69.52C397.846 67.152 395.062 65.968 391.734 65.968C388.47 65.968 385.686 67.152 383.382 69.52C381.142 71.888 380.022 75.12 380.022 79.216C380.022 83.312 381.142 86.544 383.382 88.912C385.686 91.28 388.47 92.464 391.734 92.464C394.998 92.464 397.782 91.28 400.086 88.912C402.39 86.48 403.542 83.216 403.542 79.12ZM479.354 78.352C479.354 79.888 479.258 81.488 479.066 83.152H441.914C442.17 86.48 443.226 89.04 445.082 90.832C447.002 92.56 449.338 93.424 452.09 93.424C456.186 93.424 459.034 91.696 460.634 88.24H478.106C477.21 91.76 475.578 94.928 473.21 97.744C470.906 100.56 467.994 102.768 464.474 104.368C460.954 105.968 457.018 106.768 452.666 106.768C447.418 106.768 442.746 105.648 438.65 103.408C434.554 101.168 431.354 97.968 429.05 93.808C426.746 89.648 425.594 84.784 425.594 79.216C425.594 73.648 426.714 68.784 428.954 64.624C431.258 60.464 434.458 57.264 438.554 55.024C442.65 52.784 447.354 51.664 452.666 51.664C457.85 51.664 462.458 52.752 466.49 54.928C470.522 57.104 473.658 60.208 475.898 64.24C478.202 68.272 479.354 72.976 479.354 78.352ZM462.554 74.032C462.554 71.216 461.594 68.976 459.674 67.312C457.754 65.648 455.354 64.816 452.474 64.816C449.722 64.816 447.386 65.616 445.466 67.216C443.61 68.816 442.458 71.088 442.01 74.032H462.554ZM504.431 61.36C506.351 58.416 508.751 56.112 511.631 54.448C514.511 52.72 517.711 51.856 521.231 51.856V69.232H516.719C512.623 69.232 509.551 70.128 507.503 71.92C505.455 73.648 504.431 76.72 504.431 81.136V106H488.015V52.432H504.431V61.36ZM561.717 51.856C567.989 51.856 572.981 53.904 576.693 58C580.469 62.032 582.357 67.6 582.357 74.704V106H566.037V76.912C566.037 73.328 565.109 70.544 563.253 68.56C561.397 66.576 558.901 65.584 555.765 65.584C552.629 65.584 550.133 66.576 548.277 68.56C546.421 70.544 545.493 73.328 545.493 76.912V106H529.077V52.432H545.493V59.536C547.157 57.168 549.397 55.312 552.213 53.968C555.029 52.56 558.197 51.856 561.717 51.856ZM618.149 106.768C612.901 106.768 608.165 105.648 603.941 103.408C599.781 101.168 596.485 97.968 594.053 93.808C591.685 89.648 590.501 84.784 590.501 79.216C590.501 73.712 591.717 68.88 594.148 64.72C596.581 60.496 599.909 57.264 604.133 55.024C608.357 52.784 613.093 51.664 618.341 51.664C623.589 51.664 628.325 52.784 632.549 55.024C636.773 57.264 640.101 60.496 642.533 64.72C644.965 68.88 646.181 73.712 646.181 79.216C646.181 84.72 644.933 89.584 642.437 93.808C640.005 97.968 636.645 101.168 632.357 103.408C628.133 105.648 623.397 106.768 618.149 106.768ZM618.149 92.56C621.285 92.56 623.941 91.408 626.117 89.104C628.357 86.8 629.477 83.504 629.477 79.216C629.477 74.928 628.389 71.632 626.213 69.328C624.101 67.024 621.477 65.872 618.341 65.872C615.141 65.872 612.485 67.024 610.373 69.328C608.261 71.568 607.205 74.864 607.205 79.216C607.205 83.504 608.229 86.8 610.277 89.104C612.389 91.408 615.013 92.56 618.149 92.56ZM678.986 90.64L690.602 52.432H708.074L689.066 106H668.81L649.802 52.432H667.37L678.986 90.64ZM711.719 79.12C711.719 73.616 712.743 68.784 714.791 64.624C716.903 60.464 719.751 57.264 723.335 55.024C726.919 52.784 730.919 51.664 735.335 51.664C739.111 51.664 742.407 52.432 745.223 53.968C748.103 55.504 750.311 57.52 751.847 60.016V52.432H768.263V106H751.847V98.416C750.247 100.912 748.007 102.928 745.127 104.464C742.311 106 739.015 106.768 735.239 106.768C730.887 106.768 726.919 105.648 723.335 103.408C719.751 101.104 716.903 97.872 714.791 93.712C712.743 89.488 711.719 84.624 711.719 79.12ZM751.847 79.216C751.847 75.12 750.695 71.888 748.391 69.52C746.151 67.152 743.399 65.968 740.135 65.968C736.871 65.968 734.087 67.152 731.783 69.52C729.543 71.824 728.423 75.024 728.423 79.12C728.423 83.216 729.543 86.48 731.783 88.912C734.087 91.28 736.871 92.464 740.135 92.464C743.399 92.464 746.151 91.28 748.391 88.912C750.695 86.544 751.847 83.312 751.847 79.216Z" fill="black"/>
<path d="M261.216 144.304V150.88H252.288V178H244.08V150.88H235.152V144.304H261.216ZM290.583 164.176C290.583 164.944 290.535 165.744 290.439 166.576H271.863C271.991 168.24 272.519 169.52 273.447 170.416C274.407 171.28 275.575 171.712 276.951 171.712C278.999 171.712 280.423 170.848 281.223 169.12H289.959C289.511 170.88 288.695 172.464 287.511 173.872C286.359 175.28 284.903 176.384 283.143 177.184C281.383 177.984 279.415 178.384 277.239 178.384C274.615 178.384 272.279 177.824 270.231 176.704C268.183 175.584 266.583 173.984 265.431 171.904C264.279 169.824 263.703 167.392 263.703 164.608C263.703 161.824 264.263 159.392 265.383 157.312C266.535 155.232 268.135 153.632 270.183 152.512C272.231 151.392 274.583 150.832 277.239 150.832C279.831 150.832 282.135 151.376 284.151 152.464C286.167 153.552 287.735 155.104 288.855 157.12C290.007 159.136 290.583 161.488 290.583 164.176ZM282.183 162.016C282.183 160.608 281.703 159.488 280.743 158.656C279.783 157.824 278.583 157.408 277.143 157.408C275.767 157.408 274.599 157.808 273.639 158.608C272.711 159.408 272.135 160.544 271.911 162.016H282.183ZM293.282 164.608C293.282 161.824 293.842 159.392 294.962 157.312C296.114 155.232 297.698 153.632 299.714 152.512C301.762 151.392 304.098 150.832 306.722 150.832C310.082 150.832 312.882 151.712 315.122 153.472C317.394 155.232 318.882 157.712 319.586 160.912H310.85C310.114 158.864 308.69 157.84 306.578 157.84C305.074 157.84 303.874 158.432 302.978 159.616C302.082 160.768 301.634 162.432 301.634 164.608C301.634 166.784 302.082 168.464 302.978 169.648C303.874 170.8 305.074 171.376 306.578 171.376C308.69 171.376 310.114 170.352 310.85 168.304H319.586C318.882 171.44 317.394 173.904 315.122 175.696C312.85 177.488 310.05 178.384 306.722 178.384C304.098 178.384 301.762 177.824 299.714 176.704C297.698 175.584 296.114 173.984 294.962 171.904C293.842 169.824 293.282 167.392 293.282 164.608ZM340.44 150.928C343.512 150.928 345.976 151.952 347.832 154C349.688 156.016 350.616 158.8 350.616 162.352V178H342.456V163.456C342.456 161.664 341.992 160.272 341.064 159.28C340.136 158.288 338.888 157.792 337.32 157.792C335.752 157.792 334.504 158.288 333.576 159.28C332.648 160.272 332.184 161.664 332.184 163.456V178H323.976V142.48H332.184V154.816C333.016 153.632 334.152 152.688 335.592 151.984C337.032 151.28 338.648 150.928 340.44 150.928ZM372.64 150.928C375.776 150.928 378.272 151.952 380.128 154C382.016 156.016 382.96 158.8 382.96 162.352V178H374.8V163.456C374.8 161.664 374.336 160.272 373.408 159.28C372.48 158.288 371.232 157.792 369.664 157.792C368.096 157.792 366.848 158.288 365.92 159.28C364.992 160.272 364.528 161.664 364.528 163.456V178H356.32V151.216H364.528V154.768C365.36 153.584 366.48 152.656 367.888 151.984C369.296 151.28 370.88 150.928 372.64 150.928ZM400.856 178.384C398.232 178.384 395.864 177.824 393.752 176.704C391.672 175.584 390.024 173.984 388.808 171.904C387.624 169.824 387.032 167.392 387.032 164.608C387.032 161.856 387.64 159.44 388.855 157.36C390.072 155.248 391.736 153.632 393.848 152.512C395.96 151.392 398.328 150.832 400.952 150.832C403.576 150.832 405.944 151.392 408.056 152.512C410.168 153.632 411.832 155.248 413.048 157.36C414.264 159.44 414.872 161.856 414.872 164.608C414.872 167.36 414.248 169.792 413 171.904C411.784 173.984 410.104 175.584 407.96 176.704C405.848 177.824 403.48 178.384 400.856 178.384ZM400.856 171.28C402.424 171.28 403.752 170.704 404.84 169.552C405.96 168.4 406.52 166.752 406.52 164.608C406.52 162.464 405.976 160.816 404.888 159.664C403.832 158.512 402.52 157.936 400.952 157.936C399.352 157.936 398.024 158.512 396.968 159.664C395.912 160.784 395.384 162.432 395.384 164.608C395.384 166.752 395.896 168.4 396.92 169.552C397.976 170.704 399.288 171.28 400.856 171.28ZM427.434 142.48V178H419.226V142.48H427.434ZM445.574 178.384C442.95 178.384 440.582 177.824 438.47 176.704C436.39 175.584 434.742 173.984 433.526 171.904C432.342 169.824 431.75 167.392 431.75 164.608C431.75 161.856 432.358 159.44 433.574 157.36C434.79 155.248 436.454 153.632 438.566 152.512C440.678 151.392 443.046 150.832 445.67 150.832C448.294 150.832 450.662 151.392 452.774 152.512C454.886 153.632 456.55 155.248 457.766 157.36C458.982 159.44 459.59 161.856 459.59 164.608C459.59 167.36 458.966 169.792 457.718 171.904C456.502 173.984 454.822 175.584 452.678 176.704C450.566 177.824 448.198 178.384 445.574 178.384ZM445.574 171.28C447.142 171.28 448.47 170.704 449.558 169.552C450.678 168.4 451.238 166.752 451.238 164.608C451.238 162.464 450.694 160.816 449.606 159.664C448.55 158.512 447.238 157.936 445.67 157.936C444.07 157.936 442.742 158.512 441.686 159.664C440.63 160.784 440.102 162.432 440.102 164.608C440.102 166.752 440.614 168.4 441.638 169.552C442.694 170.704 444.006 171.28 445.574 171.28ZM474.121 150.832C476.009 150.832 477.657 151.216 479.065 151.984C480.505 152.752 481.609 153.76 482.377 155.008V151.216H490.585V177.952C490.585 180.416 490.089 182.64 489.097 184.624C488.137 186.64 486.649 188.24 484.633 189.424C482.649 190.608 480.169 191.2 477.193 191.2C473.225 191.2 470.009 190.256 467.545 188.368C465.081 186.512 463.673 183.984 463.321 180.784H471.433C471.689 181.808 472.297 182.608 473.257 183.184C474.217 183.792 475.401 184.096 476.809 184.096C478.505 184.096 479.849 183.6 480.841 182.608C481.865 181.648 482.377 180.096 482.377 177.952V174.16C481.577 175.408 480.473 176.432 479.065 177.232C477.657 178 476.009 178.384 474.121 178.384C471.913 178.384 469.913 177.824 468.121 176.704C466.329 175.552 464.905 173.936 463.849 171.856C462.825 169.744 462.313 167.312 462.313 164.56C462.313 161.808 462.825 159.392 463.849 157.312C464.905 155.232 466.329 153.632 468.121 152.512C469.913 151.392 471.913 150.832 474.121 150.832ZM482.377 164.608C482.377 162.56 481.801 160.944 480.649 159.76C479.529 158.576 478.153 157.984 476.521 157.984C474.889 157.984 473.497 158.576 472.345 159.76C471.225 160.912 470.665 162.512 470.665 164.56C470.665 166.608 471.225 168.24 472.345 169.456C473.497 170.64 474.889 171.232 476.521 171.232C478.153 171.232 479.529 170.64 480.649 169.456C481.801 168.272 482.377 166.656 482.377 164.608ZM500.651 148.432C499.211 148.432 498.027 148.016 497.099 147.184C496.203 146.32 495.755 145.264 495.755 144.016C495.755 142.736 496.203 141.68 497.099 140.848C498.027 139.984 499.211 139.552 500.651 139.552C502.059 139.552 503.211 139.984 504.107 140.848C505.035 141.68 505.499 142.736 505.499 144.016C505.499 145.264 505.035 146.32 504.107 147.184C503.211 148.016 502.059 148.432 500.651 148.432ZM504.731 151.216V178H496.523V151.216H504.731ZM535.927 164.176C535.927 164.944 535.879 165.744 535.783 166.576H517.207C517.335 168.24 517.863 169.52 518.791 170.416C519.751 171.28 520.919 171.712 522.295 171.712C524.343 171.712 525.767 170.848 526.567 169.12H535.303C534.855 170.88 534.039 172.464 532.855 173.872C531.703 175.28 530.247 176.384 528.487 177.184C526.727 177.984 524.759 178.384 522.583 178.384C519.959 178.384 517.623 177.824 515.575 176.704C513.527 175.584 511.927 173.984 510.775 171.904C509.623 169.824 509.047 167.392 509.047 164.608C509.047 161.824 509.607 159.392 510.727 157.312C511.879 155.232 513.479 153.632 515.527 152.512C517.575 151.392 519.927 150.832 522.583 150.832C525.175 150.832 527.479 151.376 529.495 152.464C531.511 153.552 533.079 155.104 534.199 157.12C535.351 159.136 535.927 161.488 535.927 164.176ZM527.527 162.016C527.527 160.608 527.047 159.488 526.087 158.656C525.127 157.824 523.927 157.408 522.487 157.408C521.111 157.408 519.943 157.808 518.983 158.608C518.055 159.408 517.479 160.544 517.255 162.016H527.527ZM551.153 178.384C548.817 178.384 546.737 177.984 544.913 177.184C543.089 176.384 541.649 175.296 540.593 173.92C539.537 172.512 538.945 170.944 538.817 169.216H546.929C547.025 170.144 547.457 170.896 548.225 171.472C548.993 172.048 549.937 172.336 551.057 172.336C552.081 172.336 552.865 172.144 553.409 171.76C553.985 171.344 554.273 170.816 554.273 170.176C554.273 169.408 553.873 168.848 553.073 168.496C552.273 168.112 550.977 167.696 549.185 167.248C547.265 166.8 545.665 166.336 544.385 165.856C543.105 165.344 542.001 164.56 541.073 163.504C540.145 162.416 539.681 160.96 539.681 159.136C539.681 157.6 540.097 156.208 540.929 154.96C541.793 153.68 543.041 152.672 544.673 151.936C546.337 151.2 548.305 150.832 550.577 150.832C553.937 150.832 556.577 151.664 558.497 153.328C560.449 154.992 561.569 157.2 561.857 159.952H554.273C554.145 159.024 553.729 158.288 553.025 157.744C552.353 157.2 551.457 156.928 550.337 156.928C549.377 156.928 548.641 157.12 548.129 157.504C547.617 157.856 547.361 158.352 547.361 158.992C547.361 159.76 547.761 160.336 548.561 160.72C549.393 161.104 550.673 161.488 552.401 161.872C554.385 162.384 556.001 162.896 557.249 163.408C558.497 163.888 559.585 164.688 560.513 165.808C561.473 166.896 561.969 168.368 562.001 170.224C562.001 171.792 561.553 173.2 560.657 174.448C559.793 175.664 558.529 176.624 556.865 177.328C555.233 178.032 553.329 178.384 551.153 178.384Z" fill="#B24848"/>
</svg>
