<svg width="858" height="299" viewBox="0 0 858 299" fill="none" xmlns="http://www.w3.org/2000/svg">
<path d="M353.336 166.297C348.408 166.297 343.992 165.497 340.088 163.897C336.184 162.297 333.048 159.929 330.68 156.793C328.376 153.657 327.16 149.881 327.032 145.465H344.504C344.76 147.961 345.624 149.881 347.096 151.225C348.568 152.505 350.488 153.145 352.856 153.145C355.288 153.145 357.208 152.601 358.616 151.513C360.024 150.361 360.728 148.793 360.728 146.809C360.728 145.145 360.152 143.769 359 142.681C357.912 141.593 356.536 140.697 354.872 139.993C353.272 139.289 350.968 138.489 347.96 137.593C343.608 136.249 340.056 134.905 337.304 133.561C334.552 132.217 332.184 130.233 330.2 127.609C328.216 124.985 327.224 121.561 327.224 117.337C327.224 111.065 329.496 106.169 334.04 102.649C338.584 99.0652 344.504 97.2732 351.8 97.2732C359.224 97.2732 365.208 99.0652 369.752 102.649C374.296 106.169 376.728 111.097 377.048 117.433H359.288C359.16 115.257 358.36 113.561 356.888 112.345C355.416 111.065 353.528 110.425 351.224 110.425C349.24 110.425 347.64 110.969 346.424 112.057C345.208 113.081 344.6 114.585 344.6 116.569C344.6 118.745 345.624 120.441 347.672 121.657C349.72 122.873 352.92 124.185 357.272 125.593C361.624 127.065 365.144 128.473 367.832 129.817C370.584 131.161 372.952 133.113 374.936 135.673C376.92 138.233 377.912 141.529 377.912 145.561C377.912 149.401 376.92 152.889 374.936 156.025C373.016 159.161 370.2 161.657 366.488 163.513C362.776 165.369 358.392 166.297 353.336 166.297ZM440.911 112.057V165.625H424.495V158.329C422.831 160.697 420.559 162.617 417.679 164.089C414.863 165.497 411.727 166.201 408.271 166.201C404.175 166.201 400.559 165.305 397.423 163.513C394.287 161.657 391.855 159.001 390.127 155.545C388.399 152.089 387.535 148.025 387.535 143.353V112.057H403.855V141.145C403.855 144.729 404.783 147.513 406.639 149.497C408.495 151.481 410.991 152.473 414.127 152.473C417.327 152.473 419.855 151.481 421.711 149.497C423.567 147.513 424.495 144.729 424.495 141.145V112.057H440.911ZM469.118 119.641C470.718 117.145 472.926 115.129 475.742 113.593C478.558 112.057 481.854 111.289 485.63 111.289C490.046 111.289 494.046 112.409 497.63 114.649C501.214 116.889 504.03 120.089 506.078 124.249C508.19 128.409 509.246 133.241 509.246 138.745C509.246 144.249 508.19 149.113 506.078 153.337C504.03 157.497 501.214 160.729 497.63 163.033C494.046 165.273 490.046 166.393 485.63 166.393C481.918 166.393 478.622 165.625 475.742 164.089C472.926 162.553 470.718 160.569 469.118 158.137V191.161H452.702V112.057H469.118V119.641ZM492.542 138.745C492.542 134.649 491.39 131.449 489.086 129.145C486.846 126.777 484.062 125.593 480.734 125.593C477.47 125.593 474.686 126.777 472.382 129.145C470.142 131.513 469.022 134.745 469.022 138.841C469.022 142.937 470.142 146.169 472.382 148.537C474.686 150.905 477.47 152.089 480.734 152.089C483.998 152.089 486.782 150.905 489.086 148.537C491.39 146.105 492.542 142.841 492.542 138.745ZM568.354 137.977C568.354 139.513 568.258 141.113 568.066 142.777H530.914C531.17 146.105 532.226 148.665 534.082 150.457C536.002 152.185 538.338 153.049 541.09 153.049C545.186 153.049 548.034 151.321 549.634 147.865H567.106C566.21 151.385 564.578 154.553 562.21 157.369C559.906 160.185 556.994 162.393 553.474 163.993C549.954 165.593 546.018 166.393 541.666 166.393C536.418 166.393 531.746 165.273 527.65 163.033C523.554 160.793 520.354 157.593 518.05 153.433C515.746 149.273 514.594 144.409 514.594 138.841C514.594 133.273 515.714 128.409 517.954 124.249C520.258 120.089 523.458 116.889 527.554 114.649C531.65 112.409 536.354 111.289 541.666 111.289C546.85 111.289 551.458 112.377 555.49 114.553C559.522 116.729 562.658 119.833 564.898 123.865C567.202 127.897 568.354 132.601 568.354 137.977ZM551.554 133.657C551.554 130.841 550.594 128.601 548.674 126.937C546.754 125.273 544.354 124.441 541.474 124.441C538.722 124.441 536.386 125.241 534.466 126.841C532.61 128.441 531.458 130.713 531.01 133.657H551.554ZM593.431 120.985C595.351 118.041 597.751 115.737 600.631 114.073C603.511 112.345 606.711 111.481 610.231 111.481V128.857H605.719C601.623 128.857 598.551 129.753 596.503 131.545C594.455 133.273 593.431 136.345 593.431 140.761V165.625H577.015V112.057H593.431V120.985ZM650.717 111.481C656.989 111.481 661.981 113.529 665.693 117.625C669.469 121.657 671.357 127.225 671.357 134.329V165.625H655.037V136.537C655.037 132.953 654.109 130.169 652.253 128.185C650.397 126.201 647.901 125.209 644.765 125.209C641.629 125.209 639.133 126.201 637.277 128.185C635.421 130.169 634.493 132.953 634.493 136.537V165.625H618.077V112.057H634.493V119.161C636.157 116.793 638.397 114.937 641.213 113.593C644.029 112.185 647.197 111.481 650.717 111.481ZM707.149 166.393C701.901 166.393 697.165 165.273 692.941 163.033C688.781 160.793 685.485 157.593 683.053 153.433C680.685 149.273 679.501 144.409 679.501 138.841C679.501 133.337 680.717 128.505 683.148 124.345C685.581 120.121 688.909 116.889 693.133 114.649C697.357 112.409 702.093 111.289 707.341 111.289C712.589 111.289 717.325 112.409 721.549 114.649C725.773 116.889 729.101 120.121 731.533 124.345C733.965 128.505 735.181 133.337 735.181 138.841C735.181 144.345 733.933 149.209 731.437 153.433C729.005 157.593 725.645 160.793 721.357 163.033C717.133 165.273 712.397 166.393 707.149 166.393ZM707.149 152.185C710.285 152.185 712.941 151.033 715.117 148.729C717.357 146.425 718.477 143.129 718.477 138.841C718.477 134.553 717.389 131.257 715.213 128.953C713.101 126.649 710.477 125.497 707.341 125.497C704.141 125.497 701.485 126.649 699.373 128.953C697.261 131.193 696.205 134.489 696.205 138.841C696.205 143.129 697.229 146.425 699.277 148.729C701.389 151.033 704.013 152.185 707.149 152.185ZM767.986 150.265L779.602 112.057H797.074L778.066 165.625H757.81L738.802 112.057H756.37L767.986 150.265ZM800.719 138.745C800.719 133.241 801.743 128.409 803.791 124.249C805.903 120.089 808.751 116.889 812.335 114.649C815.919 112.409 819.919 111.289 824.335 111.289C828.111 111.289 831.407 112.057 834.223 113.593C837.103 115.129 839.311 117.145 840.847 119.641V112.057H857.263V165.625H840.847V158.041C839.247 160.537 837.007 162.553 834.127 164.089C831.311 165.625 828.015 166.393 824.239 166.393C819.887 166.393 815.919 165.273 812.335 163.033C808.751 160.729 805.903 157.497 803.791 153.337C801.743 149.113 800.719 144.249 800.719 138.745ZM840.847 138.841C840.847 134.745 839.695 131.513 837.391 129.145C835.151 126.777 832.399 125.593 829.135 125.593C825.871 125.593 823.087 126.777 820.783 129.145C818.543 131.449 817.423 134.649 817.423 138.745C817.423 142.841 818.543 146.105 820.783 148.537C823.087 150.905 825.871 152.089 829.135 152.089C832.399 152.089 835.151 150.905 837.391 148.537C839.695 146.169 840.847 142.937 840.847 138.841Z" fill="black"/>
<path d="M350.216 203.929V210.505H341.288V237.625H333.08V210.505H324.152V203.929H350.216ZM379.583 223.801C379.583 224.569 379.535 225.369 379.439 226.201H360.863C360.991 227.865 361.519 229.145 362.447 230.041C363.407 230.905 364.575 231.337 365.951 231.337C367.999 231.337 369.423 230.473 370.223 228.745H378.959C378.511 230.505 377.695 232.089 376.511 233.497C375.359 234.905 373.903 236.009 372.143 236.809C370.383 237.609 368.415 238.009 366.239 238.009C363.615 238.009 361.279 237.449 359.231 236.329C357.183 235.209 355.583 233.609 354.431 231.529C353.279 229.449 352.703 227.017 352.703 224.233C352.703 221.449 353.263 219.017 354.383 216.937C355.535 214.857 357.135 213.257 359.183 212.137C361.231 211.017 363.583 210.457 366.239 210.457C368.831 210.457 371.135 211.001 373.151 212.089C375.167 213.177 376.735 214.729 377.855 216.745C379.007 218.761 379.583 221.113 379.583 223.801ZM371.183 221.641C371.183 220.233 370.703 219.113 369.743 218.281C368.783 217.449 367.583 217.033 366.143 217.033C364.767 217.033 363.599 217.433 362.639 218.233C361.711 219.033 361.135 220.169 360.911 221.641H371.183ZM382.282 224.233C382.282 221.449 382.842 219.017 383.962 216.937C385.114 214.857 386.698 213.257 388.714 212.137C390.762 211.017 393.098 210.457 395.722 210.457C399.082 210.457 401.882 211.337 404.122 213.097C406.394 214.857 407.882 217.337 408.586 220.537H399.85C399.114 218.489 397.69 217.465 395.578 217.465C394.074 217.465 392.874 218.057 391.978 219.241C391.082 220.393 390.634 222.057 390.634 224.233C390.634 226.409 391.082 228.089 391.978 229.273C392.874 230.425 394.074 231.001 395.578 231.001C397.69 231.001 399.114 229.977 399.85 227.929H408.586C407.882 231.065 406.394 233.529 404.122 235.321C401.85 237.113 399.05 238.009 395.722 238.009C393.098 238.009 390.762 237.449 388.714 236.329C386.698 235.209 385.114 233.609 383.962 231.529C382.842 229.449 382.282 227.017 382.282 224.233ZM429.44 210.553C432.512 210.553 434.976 211.577 436.832 213.625C438.688 215.641 439.616 218.425 439.616 221.977V237.625H431.456V223.081C431.456 221.289 430.992 219.897 430.064 218.905C429.136 217.913 427.888 217.417 426.32 217.417C424.752 217.417 423.504 217.913 422.576 218.905C421.648 219.897 421.184 221.289 421.184 223.081V237.625H412.976V202.105H421.184V214.441C422.016 213.257 423.152 212.313 424.592 211.609C426.032 210.905 427.648 210.553 429.44 210.553ZM461.64 210.553C464.776 210.553 467.272 211.577 469.128 213.625C471.016 215.641 471.96 218.425 471.96 221.977V237.625H463.8V223.081C463.8 221.289 463.336 219.897 462.408 218.905C461.48 217.913 460.232 217.417 458.664 217.417C457.096 217.417 455.848 217.913 454.92 218.905C453.992 219.897 453.528 221.289 453.528 223.081V237.625H445.32V210.841H453.528V214.393C454.36 213.209 455.48 212.281 456.888 211.609C458.296 210.905 459.88 210.553 461.64 210.553ZM489.856 238.009C487.232 238.009 484.864 237.449 482.752 236.329C480.672 235.209 479.024 233.609 477.808 231.529C476.624 229.449 476.032 227.017 476.032 224.233C476.032 221.481 476.64 219.065 477.855 216.985C479.072 214.873 480.736 213.257 482.848 212.137C484.96 211.017 487.328 210.457 489.952 210.457C492.576 210.457 494.944 211.017 497.056 212.137C499.168 213.257 500.832 214.873 502.048 216.985C503.264 219.065 503.872 221.481 503.872 224.233C503.872 226.985 503.248 229.417 502 231.529C500.784 233.609 499.104 235.209 496.96 236.329C494.848 237.449 492.48 238.009 489.856 238.009ZM489.856 230.905C491.424 230.905 492.752 230.329 493.84 229.177C494.96 228.025 495.52 226.377 495.52 224.233C495.52 222.089 494.976 220.441 493.888 219.289C492.832 218.137 491.52 217.561 489.952 217.561C488.352 217.561 487.024 218.137 485.968 219.289C484.912 220.409 484.384 222.057 484.384 224.233C484.384 226.377 484.896 228.025 485.92 229.177C486.976 230.329 488.288 230.905 489.856 230.905ZM516.434 202.105V237.625H508.226V202.105H516.434ZM534.574 238.009C531.95 238.009 529.582 237.449 527.47 236.329C525.39 235.209 523.742 233.609 522.526 231.529C521.342 229.449 520.75 227.017 520.75 224.233C520.75 221.481 521.358 219.065 522.574 216.985C523.79 214.873 525.454 213.257 527.566 212.137C529.678 211.017 532.046 210.457 534.67 210.457C537.294 210.457 539.662 211.017 541.774 212.137C543.886 213.257 545.55 214.873 546.766 216.985C547.982 219.065 548.59 221.481 548.59 224.233C548.59 226.985 547.966 229.417 546.718 231.529C545.502 233.609 543.822 235.209 541.678 236.329C539.566 237.449 537.198 238.009 534.574 238.009ZM534.574 230.905C536.142 230.905 537.47 230.329 538.558 229.177C539.678 228.025 540.238 226.377 540.238 224.233C540.238 222.089 539.694 220.441 538.606 219.289C537.55 218.137 536.238 217.561 534.67 217.561C533.07 217.561 531.742 218.137 530.686 219.289C529.63 220.409 529.102 222.057 529.102 224.233C529.102 226.377 529.614 228.025 530.638 229.177C531.694 230.329 533.006 230.905 534.574 230.905ZM563.121 210.457C565.009 210.457 566.657 210.841 568.065 211.609C569.505 212.377 570.609 213.385 571.377 214.633V210.841H579.585V237.577C579.585 240.041 579.089 242.265 578.097 244.249C577.137 246.265 575.649 247.865 573.633 249.049C571.649 250.233 569.169 250.825 566.193 250.825C562.225 250.825 559.009 249.881 556.545 247.993C554.081 246.137 552.673 243.609 552.321 240.409H560.433C560.689 241.433 561.297 242.233 562.257 242.809C563.217 243.417 564.401 243.721 565.809 243.721C567.505 243.721 568.849 243.225 569.841 242.233C570.865 241.273 571.377 239.721 571.377 237.577V233.785C570.577 235.033 569.473 236.057 568.065 236.857C566.657 237.625 565.009 238.009 563.121 238.009C560.913 238.009 558.913 237.449 557.121 236.329C555.329 235.177 553.905 233.561 552.849 231.481C551.825 229.369 551.313 226.937 551.313 224.185C551.313 221.433 551.825 219.017 552.849 216.937C553.905 214.857 555.329 213.257 557.121 212.137C558.913 211.017 560.913 210.457 563.121 210.457ZM571.377 224.233C571.377 222.185 570.801 220.569 569.649 219.385C568.529 218.201 567.153 217.609 565.521 217.609C563.889 217.609 562.497 218.201 561.345 219.385C560.225 220.537 559.665 222.137 559.665 224.185C559.665 226.233 560.225 227.865 561.345 229.081C562.497 230.265 563.889 230.857 565.521 230.857C567.153 230.857 568.529 230.265 569.649 229.081C570.801 227.897 571.377 226.281 571.377 224.233ZM589.651 208.057C588.211 208.057 587.027 207.641 586.099 206.809C585.203 205.945 584.755 204.889 584.755 203.641C584.755 202.361 585.203 201.305 586.099 200.473C587.027 199.609 588.211 199.177 589.651 199.177C591.059 199.177 592.211 199.609 593.107 200.473C594.035 201.305 594.499 202.361 594.499 203.641C594.499 204.889 594.035 205.945 593.107 206.809C592.211 207.641 591.059 208.057 589.651 208.057ZM593.731 210.841V237.625H585.523V210.841H593.731ZM624.927 223.801C624.927 224.569 624.879 225.369 624.783 226.201H606.207C606.335 227.865 606.863 229.145 607.791 230.041C608.751 230.905 609.919 231.337 611.295 231.337C613.343 231.337 614.767 230.473 615.567 228.745H624.303C623.855 230.505 623.039 232.089 621.855 233.497C620.703 234.905 619.247 236.009 617.487 236.809C615.727 237.609 613.759 238.009 611.583 238.009C608.959 238.009 606.623 237.449 604.575 236.329C602.527 235.209 600.927 233.609 599.775 231.529C598.623 229.449 598.047 227.017 598.047 224.233C598.047 221.449 598.607 219.017 599.727 216.937C600.879 214.857 602.479 213.257 604.527 212.137C606.575 211.017 608.927 210.457 611.583 210.457C614.175 210.457 616.479 211.001 618.495 212.089C620.511 213.177 622.079 214.729 623.199 216.745C624.351 218.761 624.927 221.113 624.927 223.801ZM616.527 221.641C616.527 220.233 616.047 219.113 615.087 218.281C614.127 217.449 612.927 217.033 611.487 217.033C610.111 217.033 608.943 217.433 607.983 218.233C607.055 219.033 606.479 220.169 606.255 221.641H616.527ZM640.153 238.009C637.817 238.009 635.737 237.609 633.913 236.809C632.089 236.009 630.649 234.921 629.593 233.545C628.537 232.137 627.945 230.569 627.817 228.841H635.929C636.025 229.769 636.457 230.521 637.225 231.097C637.993 231.673 638.937 231.961 640.057 231.961C641.081 231.961 641.865 231.769 642.409 231.385C642.985 230.969 643.273 230.441 643.273 229.801C643.273 229.033 642.873 228.473 642.073 228.121C641.273 227.737 639.977 227.321 638.185 226.873C636.265 226.425 634.665 225.961 633.385 225.481C632.105 224.969 631.001 224.185 630.073 223.129C629.145 222.041 628.681 220.585 628.681 218.761C628.681 217.225 629.097 215.833 629.929 214.585C630.793 213.305 632.041 212.297 633.673 211.561C635.337 210.825 637.305 210.457 639.577 210.457C642.937 210.457 645.577 211.289 647.497 212.953C649.449 214.617 650.569 216.825 650.857 219.577H643.273C643.145 218.649 642.729 217.913 642.025 217.369C641.353 216.825 640.457 216.553 639.337 216.553C638.377 216.553 637.641 216.745 637.129 217.129C636.617 217.481 636.361 217.977 636.361 218.617C636.361 219.385 636.761 219.961 637.561 220.345C638.393 220.729 639.673 221.113 641.401 221.497C643.385 222.009 645.001 222.521 646.249 223.033C647.497 223.513 648.585 224.313 649.513 225.433C650.473 226.521 650.969 227.993 651.001 229.849C651.001 231.417 650.553 232.825 649.657 234.073C648.793 235.289 647.529 236.249 645.865 236.953C644.233 237.657 642.329 238.009 640.153 238.009Z" fill="#B24848"/>
<path d="M199.037 2.85027e-06L256.569 97.1278L375.749 69.9734L292.127 157.156L349.659 254.284L240.445 211.038L156.822 298.221L172.947 184.311L63.7326 141.065L182.912 113.91L199.037 2.85027e-06Z" fill="#D9D9D9"/>
<circle cx="229" cy="152.625" r="59" fill="#1275E0"/>
<path d="M189.34 167.105C186.42 167.105 183.82 166.605 181.54 165.605C179.26 164.605 177.46 163.245 176.14 161.525C174.82 159.765 174.08 157.805 173.92 155.645H184.06C184.18 156.805 184.72 157.745 185.68 158.465C186.64 159.185 187.82 159.545 189.22 159.545C190.5 159.545 191.48 159.305 192.16 158.825C192.88 158.305 193.24 157.645 193.24 156.845C193.24 155.885 192.74 155.185 191.74 154.745C190.74 154.265 189.12 153.745 186.88 153.185C184.48 152.625 182.48 152.045 180.88 151.445C179.28 150.805 177.9 149.825 176.74 148.505C175.58 147.145 175 145.325 175 143.045C175 141.125 175.52 139.385 176.56 137.825C177.64 136.225 179.2 134.965 181.24 134.045C183.32 133.125 185.78 132.665 188.62 132.665C192.82 132.665 196.12 133.705 198.52 135.785C200.96 137.865 202.36 140.625 202.72 144.065H193.24C193.08 142.905 192.56 141.985 191.68 141.305C190.84 140.625 189.72 140.285 188.32 140.285C187.12 140.285 186.2 140.525 185.56 141.005C184.92 141.445 184.6 142.065 184.6 142.865C184.6 143.825 185.1 144.545 186.1 145.025C187.14 145.505 188.74 145.985 190.9 146.465C193.38 147.105 195.4 147.745 196.96 148.385C198.52 148.985 199.88 149.985 201.04 151.385C202.24 152.745 202.86 154.585 202.9 156.905C202.9 158.865 202.34 160.625 201.22 162.185C200.14 163.705 198.56 164.905 196.48 165.785C194.44 166.665 192.06 167.105 189.34 167.105ZM215.729 168.929L221.345 152.321L207.905 143.393H224.273L230.273 125.537L236.273 143.393H252.641L239.201 152.321L244.721 168.929L230.273 158.273L215.729 168.929ZM221.009 161.681L230.273 154.673L239.537 161.681L235.745 151.217L244.193 145.745H234.065L230.273 134.177L226.433 145.745H216.257L224.801 151.217L221.009 161.681ZM282.314 132.929V139.505H273.386V166.625H265.178V139.505H256.25V132.929H282.314Z" fill="white"/>
</svg>
